<?xml version="1.0" encoding="UTF-8"?> <!-- Creator: CorelDRAW (Оценочная версия) --> <svg xmlns="http://www.w3.org/2000/svg" xmlns:xlink="http://www.w3.org/1999/xlink" xmlns:xodm="http://www.corel.com/coreldraw/odm/2003" xml:space="preserve" width="128.124mm" height="73.0171mm" shape-rendering="geometricPrecision" text-rendering="geometricPrecision" image-rendering="optimizeQuality" fill-rule="evenodd" clip-rule="evenodd" viewBox="0 0 12640.93 7203.96"> <g id="Слой_x0020_1"> <metadata id="CorelCorpID_0Corel-Layer"></metadata> <path fill="#0086D8" fill-rule="nonzero" d="M1728.09 0l6.26 0 6.53 0.52 6.26 0.52 6.52 1.05 6.26 1.05 6.26 1.57 6.26 1.56 6.26 1.84 6.01 2.08 6 2.35 6.01 2.87 6 2.87 5.74 2.87 5.74 3.39 5.75 3.66 5.48 3.92 5.22 4.17 5.23 4.44 5.22 4.44 7.04 6.79 4.96 4.95 4.7 4.96 4.44 4.96 4.17 5.22 3.92 5.48 0.26 0 1521.88 1619.25 4.7 4.95 4.44 5.22 3.91 5.49 3.92 5.49 3.66 5.48 3.39 5.74 3.13 6.01 2.87 5.74 2.61 6.01 2.35 6 2.09 6.26 1.83 6.26 1.83 6.01 1.3 6.52 1.05 6.26 1.05 6.26 0.52 6.53 0.52 6.26 0.26 6.52 -0.26 6.26 0 4.17 0.52 3.14 0.78 6.79 0.52 6.79 0.52 6.79 0 6.78 -0.26 7.05 -0.52 7.04 -0.79 6.79 -1.05 7.05 -470.65 2712.47 -1.3 6.79 -1.57 7.04 -1.83 6.53 -2.09 6.52 432.55 460.22 4.7 4.96 4.44 5.22 3.91 5.49 3.92 5.48 3.66 5.49 3.39 5.74 3.13 6.01 2.87 5.74 2.61 6 2.35 6.01 2.09 6.26 1.83 6.26 1.83 6.26 1.3 6.26 1.05 6.26 1.05 6.26 0.52 6.52 0.52 6.26 0.26 6.53 -0.26 6.26 -0.27 6.52 -0.52 6.26 -0.78 6.53 -1.05 6.26 -1.3 6.26 -1.57 6.26 -1.83 6.26 -2.09 6 -0.78 2.35 -318.74 1837.48 -1.3 6.26 -1.57 6.26 -1.56 6 -2.09 6.01 -2.35 5.74 -2.35 5.74 -2.87 5.48 -2.87 5.23 -3.14 5.22 -3.39 4.96 -3.65 4.95 -3.92 4.7 -3.92 4.44 -4.17 4.44 -4.44 3.92 -4.44 4.17 -4.7 3.66 -4.7 3.65 -4.96 3.14 -5.22 3.13 -5.23 2.87 -5.22 2.87 -5.48 2.35 -5.74 2.35 -5.49 1.84 -6.01 1.83 -5.74 1.57 -6 1.3 -6.01 0.78 -6 0.79 -6.26 0.52 -6.26 0.26 -6.26 -0.26 -6.26 -0.27 -6.26 -0.78 -6.26 -0.79 -5.74 -1.04 -4.96 0.78 -6.53 1.05 -6.52 0.52 -6.52 0.52 -6.79 0.26 -6.53 -0.26 -6.52 -0.27 -6.53 -0.52 -6.52 -0.78 -6.53 -1.3 -6.52 -1.31 -6.53 -1.57 -6.26 -1.83 -6.26 -2.08 -6.26 -2.36 -6.26 -2.6 -6 -2.61 -6.01 -3.13 -6 -3.39 -5.74 -3.66 -5.74 -3.65 -5.49 -4.17 -5.22 -4.18 -5.49 -4.7 -4.95 -4.7 -4.96 -5.22 -1061.4 -1129.01 -1061.39 1129.01 -4.96 5.22 -4.96 4.7 -5.22 4.7 -5.49 4.18 -5.48 4.17 -5.74 3.65 -5.74 3.66 -6.01 3.39 -6 3.13 -6.01 2.61 -6.26 2.6 -6.01 2.36 -6.52 2.08 -6.26 1.83 -6.52 1.57 -6.53 1.31 -6.52 1.3 -6.53 0.78 -6.52 0.52 -6.53 0.27 -6.52 0.26 -6.79 -0.26 -6.53 -0.52 -6.52 -0.52 -6.53 -1.05 -2.08 -0.27 -2.87 0.52 -6.53 0.79 -6.26 0.78 -6.26 0.27 -6.26 0.26 -6.26 -0.26 -6 -0.52 -6.26 -0.79 -6.01 -0.78 -6 -1.3 -5.74 -1.57 -5.74 -1.83 -5.75 -1.84 -5.74 -2.35 -5.22 -2.35 -5.48 -2.87 -5.23 -2.87 -5.22 -3.13 -4.95 -3.14 -4.71 -3.65 -4.7 -3.66 -4.44 -4.17 -4.44 -3.92 -4.17 -4.44 -3.92 -4.44 -3.65 -4.7 -3.66 -4.95 -3.39 -4.96 -3.13 -5.22 -3.14 -5.23 -2.6 -5.48 -2.61 -5.74 -2.35 -5.74 -1.83 -6.01 -1.83 -6 -1.57 -6.26 -1.3 -6.26 -323.95 -1868.28 -1.05 -6.26 -0.78 -6.26 -0.27 -6.26 0 -6.26 0 -1.05 0 -2.08 0 -6.53 0.52 -6.26 0.52 -6.52 1.05 -6.26 1.05 -6.26 1.56 -6.26 1.57 -6.26 1.83 -6.26 2.09 -6.26 2.35 -6.01 2.87 -6 2.87 -5.74 2.87 -6.01 3.39 -5.74 3.66 -5.49 3.92 -5.48 4.17 -5.49 4.44 -5.22 4.44 -4.96 424.18 -451.08 -1.05 -2.6 -2.6 -6.26 -2.09 -6.79 -1.83 -6.53 -1.57 -7.04 -1.3 -6.79 -470.65 -2712.47 -1.05 -7.05 -0.79 -6.79 -0.52 -7.04 -0.26 -7.05 0 -6.78 0.52 -6.79 0.52 -6.79 0.78 -6.79 1.31 -6.53 1.3 -6.52 1.57 -6.53 1.83 -6.52 2.35 -6.26 2.35 -6.01 2.61 -6.26 2.6 -6 1.57 -2.87 1.3 -4.44 1.83 -6.26 2.09 -6.26 2.35 -6 2.87 -6.01 2.87 -5.74 2.87 -6.01 3.39 -5.74 3.66 -5.48 3.92 -5.49 4.17 -5.49 4.44 -5.22 4.44 -4.95 1522.13 -1619.25 0 0 3.92 -5.48 4.17 -5.22 4.44 -4.96 4.7 -4.96 4.96 -4.95 7.04 -6.79 5.23 -4.44 5.22 -4.44 5.48 -4.17 5.49 -3.92 5.49 -3.66 5.74 -3.39 5.74 -2.87 6 -2.87 6.01 -2.87 6 -2.35 6.26 -2.08 6.01 -1.84 6.26 -1.56 6.52 -1.57 6.26 -1.05 6.26 -1.05 6.53 -0.52 6.26 -0.52 6.52 0 1.84 0 2.08 0zm1099.77 6695.45l251.39 -1448.78 -314.82 -334.92 -806.62 858.05 870.04 925.65zm-2207.37 -4.96l865.61 -920.69 -802.7 -853.61 -312.99 333.09 250.08 1441.2zm1101.34 -1171.55l806.88 -858.3 -802.7 -853.6 -806.63 858.04 802.44 853.86zm-947.32 -1201.57l807.14 -858.3 0 -0.27 3.92 -5.48 4.17 -5.23 4.44 -4.95 4.7 -4.96 4.96 -4.96 7.04 -6.79 5.23 -4.43 5.22 -4.44 5.48 -4.17 5.49 -3.92 5.49 -3.39 5.74 -3.39 5.74 -3.14 6 -2.87 6.01 -2.6 6 -2.61 6.26 -2.09 6.01 -1.83 6.26 -1.57 6.52 -1.56 6.26 -1.05 6.26 -0.79 6.53 -0.78 6.26 -0.52 6.52 0 1.84 0 2.08 0 6.26 0 6.53 0.52 6.26 0.78 6.52 0.79 6.26 1.05 6.26 1.56 6.26 1.57 6.26 1.83 6.01 2.09 6 2.61 6.01 2.6 6 2.87 5.74 3.14 5.74 3.39 5.75 3.39 5.48 3.92 5.22 4.17 5.23 4.44 5.22 4.43 7.04 6.79 4.96 4.96 4.7 4.96 4.44 4.95 4.17 5.23 3.92 5.48 0.26 0.27 796.7 847.33 421.85 -2430.82 -1363.15 -1449.82 -1373.08 1460.79 421.58 2430.82zm1017.28 -2836.48l34.2 3.66 33.94 5.22 33.15 6.53 32.89 7.57 32.1 9.14 31.85 10.44 31.06 11.75 30.55 12.79 29.76 14.1 29.24 15.4 28.19 16.45 27.93 17.49 26.89 18.53 26.11 19.58 25.06 20.62 24.54 21.67 23.5 22.71 22.7 23.49 21.67 24.28 20.63 25.32 19.57 26.11 18.54 26.89 17.48 27.67 16.45 28.45 15.4 29.23 14.1 29.76 12.79 30.55 11.75 31.06 10.44 31.85 8.88 32.11 7.83 32.88 6.52 33.16 5.22 33.93 3.66 34.2 2.08 34.46 0.79 34.98 -0.79 34.99 -2.08 34.72 -3.66 34.2 -5.22 33.67 -6.52 33.15 -7.83 32.89 -8.88 32.36 -10.44 31.59 -11.75 31.06 -12.79 30.55 -14.1 29.76 -15.4 29.24 -16.45 28.45 -17.48 27.66 -18.54 26.89 -19.57 26.11 -20.63 25.33 -21.67 24.27 -22.7 23.5 -23.5 22.7 -24.54 21.68 -25.06 20.62 -26.11 19.57 -26.89 18.54 -27.93 17.48 -28.19 16.45 -29.24 15.4 -29.76 14.1 -30.55 12.79 -31.06 11.75 -31.85 10.44 -32.1 9.14 -32.89 7.83 -33.15 6.26 -33.94 5.22 -34.2 3.66 -34.45 2.08 -34.99 0.79 -34.98 -0.79 -34.72 -2.08 -34.2 -3.66 -33.67 -5.22 -33.42 -6.26 -32.63 -7.83 -32.37 -9.14 -31.59 -10.44 -31.06 -11.75 -30.55 -12.79 -29.76 -14.1 -29.23 -15.4 -28.45 -16.45 -27.67 -17.48 -26.89 -18.54 -26.11 -19.57 -25.32 -20.62 -24.28 -21.68 -23.49 -22.7 -22.71 -23.5 -21.67 -24.27 -20.62 -25.33 -19.58 -26.11 -18.53 -26.89 -17.76 -27.66 -16.18 -28.45 -15.4 -29.24 -14.1 -29.76 -12.79 -30.55 -11.75 -31.06 -10.44 -31.59 -9.14 -32.36 -7.83 -32.89 -6.26 -33.15 -5.22 -33.67 -3.66 -34.2 -2.08 -34.72 -0.79 -34.99 0.79 -34.98 2.08 -34.46 3.66 -34.2 5.22 -33.93 6.26 -33.16 7.83 -32.88 9.14 -32.11 10.44 -31.85 11.75 -31.06 12.79 -30.55 14.1 -29.76 15.4 -29.23 16.18 -28.45 17.76 -27.67 18.53 -26.89 19.58 -26.11 20.62 -25.32 21.67 -24.28 22.71 -23.49 23.49 -22.71 24.28 -21.67 25.32 -20.62 26.11 -19.58 26.89 -18.53 27.67 -17.49 28.45 -16.45 29.23 -15.4 29.76 -14.1 30.55 -12.79 31.06 -11.75 31.59 -10.44 32.37 -9.14 32.63 -7.57 33.42 -6.53 33.67 -5.22 34.2 -3.66 34.72 -2.08 34.98 -0.79 34.99 0.79 34.45 2.08zm-137.57 347.97l-32.88 6.01 -32.11 8.61 -31.06 10.44 -30.28 12.8 -28.72 14.88 -27.93 16.45 -26.36 18.53 -25.06 20.36 -23.49 21.93 -21.93 23.75 -20.36 24.8 -18.53 26.63 -16.7 27.66 -14.62 28.98 -12.8 30.02 -10.69 31.06 -8.36 32.11 -6.01 32.89 -3.91 33.67 -1.31 34.45 1.31 34.46 3.91 33.67 6.01 32.89 8.36 32.1 10.69 31.06 12.8 30.02 14.62 28.98 16.7 27.93 18.53 26.36 20.36 25.06 21.93 23.5 23.49 21.92 25.06 20.36 26.36 18.53 27.93 16.71 28.72 14.61 30.28 12.8 31.06 10.7 32.11 8.35 32.88 6.01 33.68 3.92 34.45 1.05 34.46 -1.05 33.67 -3.92 32.88 -6.01 32.11 -8.35 31.06 -10.7 30.02 -12.8 28.98 -14.61 27.67 -16.71 26.62 -18.53 24.8 -20.36 23.76 -21.92 21.92 -23.5 20.1 -25.06 18.54 -26.36 16.7 -27.93 14.88 -28.98 12.8 -30.02 10.44 -31.06 8.61 -32.1 6.01 -32.89 3.65 -33.67 1.31 -34.46 -1.31 -34.45 -3.65 -33.67 -6.01 -32.89 -8.61 -32.11 -10.44 -31.06 -12.8 -30.02 -14.88 -28.98 -16.7 -27.66 -18.54 -26.63 -20.1 -24.8 -21.92 -23.75 -23.76 -21.93 -24.8 -20.36 -26.62 -18.53 -27.67 -16.45 -28.98 -14.88 -30.02 -12.8 -31.06 -10.44 -32.11 -8.61 -32.88 -6.01 -33.67 -3.65 -34.46 -1.3 -34.45 1.3 -33.68 3.65z"></path> <g id="_105553195850592"> <path fill="#0086D8" fill-rule="nonzero" d="M5603.94 3944.09l-572.54 0 -99.89 324.04 -445.86 0 633.45 -1732.27 392.26 0 640.78 1732.27 -448.3 0 -99.89 -324.04zm-472.66 -321.6l372.77 0 -187.6 -601.78 -185.17 601.78z"></path> <path id="_1" fill="#0086D8" fill-rule="nonzero" d="M7398.75 3634.68c0,199.78 -46.29,358.14 -136.44,477.53 -90.15,119.38 -211.96,180.28 -363.02,180.28 -119.38,0 -216.84,-43.85 -292.36,-129.13l0 599.36 -402.01 0 0 -1780.99 375.21 0 12.17 119.38c77.97,-97.46 177.86,-143.75 304.55,-143.75 158.37,0 280.19,58.48 367.9,175.42 90.15,116.94 134,277.75 134,482.4l0 19.5zm-402.01 -26.81c0,-226.59 -65.78,-341.09 -199.78,-341.09 -95.02,0 -158.37,34.11 -190.04,102.33l0 506.76c34.11,70.65 99.89,107.21 192.48,107.21 126.69,0 192.47,-109.64 197.34,-331.35l0 -43.85z"></path> <path id="_2" fill="#0086D8" fill-rule="nonzero" d="M7998.1 4268.14l-402.01 0 0 -1286.4 402.01 0 0 1286.4zm-426.37 -1620.2c0,-56.03 19.5,-102.32 60.91,-138.88 41.42,-36.54 95.02,-56.03 160.8,-56.03 65.79,0 119.39,19.49 160.81,56.03 41.42,36.55 63.34,82.85 63.34,138.88 0,58.48 -21.92,104.77 -63.34,141.31 -41.42,36.54 -95.02,56.04 -160.81,56.04 -65.78,0 -119.38,-19.5 -160.8,-56.04 -41.42,-36.54 -60.91,-82.84 -60.91,-141.31z"></path> <path fill="#0086D8" fill-rule="nonzero" d="M9286.52 3841.77c0,-95.02 -34.11,-170.55 -99.88,-226.59 -68.22,-56.04 -192.48,-109.63 -370.33,-160.8 -180.29,-48.73 -309.42,-104.77 -392.26,-163.24 -116.94,-85.27 -177.86,-194.91 -177.86,-331.34 0,-131.56 56.04,-241.2 165.68,-324.03 107.2,-82.85 248.51,-124.26 416.62,-124.26 114.51,0 219.27,21.93 309.42,68.22 90.15,43.85 160.8,104.76 211.96,185.17 48.73,77.96 73.09,168.11 73.09,265.56l-146.18 0c0,-119.38 -41.42,-214.4 -121.83,-285.05 -80.4,-73.09 -190.03,-107.21 -326.47,-107.21 -131.56,0 -236.33,29.24 -316.73,87.71 -77.96,58.48 -116.94,136.44 -116.94,231.46 0,87.71 34.11,160.8 104.77,214.4 70.65,56.04 185.16,104.77 341.09,148.62 153.49,41.42 272.87,85.27 353.28,131.56 77.96,46.29 138.87,99.88 180.28,163.24 38.99,63.35 60.91,138.88 60.91,224.15 0,136.44 -56.04,246.07 -163.24,328.91 -109.64,82.84 -253.38,124.25 -431.24,124.25 -124.25,0 -236.33,-21.92 -336.23,-65.78 -102.32,-43.85 -180.28,-104.77 -233.89,-182.73 -51.17,-80.4 -77.96,-168.11 -77.96,-270.44l146.18 0c0,121.83 46.29,219.27 136.44,289.94 92.58,68.21 211.96,104.76 365.46,104.76 134,0 241.2,-29.23 324.03,-90.15 80.4,-58.47 121.82,-136.43 121.82,-236.32z"></path> <path id="_1_0" fill="#0086D8" fill-rule="nonzero" d="M9857.45 3198.57c46.29,-77.97 107.21,-136.44 180.29,-177.86 73.1,-41.42 153.5,-63.35 238.77,-63.35 138.88,0 241.2,38.98 309.42,116.94 65.78,77.97 99.88,194.92 102.32,348.4l0 845.43 -141.3 0 0 -845.43c-2.44,-114.51 -26.81,-202.22 -75.54,-258.26 -46.29,-56.03 -124.25,-82.84 -229.01,-82.84 -87.71,0 -165.68,26.81 -233.9,82.84 -68.21,53.6 -116.94,129.13 -151.06,221.71l0 881.97 -141.3 0 0 -1827.29 141.3 0 0 757.72z"></path> <path id="_2_1" fill="#0086D8" fill-rule="nonzero" d="M11214.11 4268.14l-143.75 0 0 -1286.4 143.75 0 0 1286.4zm-168.11 -1659.18c0,-26.8 7.31,-51.17 24.36,-68.21 19.5,-19.5 41.42,-29.24 73.1,-29.24 29.23,0 53.59,9.75 70.65,29.24 19.5,17.05 26.8,41.42 26.8,68.21 0,26.81 -7.3,48.73 -26.8,68.22 -17.06,17.05 -41.42,26.8 -70.65,26.8 -31.68,0 -53.6,-9.75 -73.1,-26.8 -17.05,-19.5 -24.36,-41.42 -24.36,-68.22z"></path> <path id="_3" fill="#0086D8" fill-rule="nonzero" d="M12634.93 3637.12c0,202.22 -43.85,360.58 -134,477.53 -87.71,119.38 -207.09,177.85 -355.71,177.85 -175.42,0 -311.86,-63.34 -404.44,-185.16l0 655.39 -141.3 0 0 -1780.99 131.56 0 7.31 180.28c92.57,-136.43 226.58,-204.65 402,-204.65 153.5,0 275.31,58.48 363.02,175.42 87.71,116.94 131.56,277.75 131.56,484.84l0 19.5zm-143.75 -24.37c0,-163.24 -31.67,-294.8 -99.88,-389.82 -68.22,-95.02 -160.81,-141.31 -282.63,-141.31 -87.71,0 -160.8,19.5 -224.15,63.35 -63.34,41.42 -112.07,102.32 -143.75,182.73l0 616.4c34.12,73.1 82.85,131.56 146.19,170.56 63.35,36.54 138.88,56.03 224.15,56.03 119.38,0 214.4,-46.29 280.19,-141.31 68.21,-97.45 99.88,-233.89 99.88,-416.62z"></path> </g> <path fill="#5D5F61" fill-rule="nonzero" d="M4478.73 5681.54l0 -420.69 137.27 0c45.56,0 79.88,9.46 102.95,28.4 23.08,18.93 34.32,46.74 34.32,84.02 0,19.53 -5.33,36.68 -16.58,52.06 -11.24,14.79 -26.62,26.63 -45.55,34.91 22.48,6.51 40.83,18.35 53.84,36.1 13.01,17.75 19.53,39.05 19.53,63.9 0,37.87 -11.83,67.45 -36.68,88.76 -24.26,21.89 -58.58,32.54 -103.55,32.54l-145.55 0zm55.02 -197.04l0 151.47 91.72 0c26.04,0 46.15,-6.51 60.94,-20.12 15.38,-13.01 22.48,-31.35 22.48,-55.02 0,-50.89 -27.22,-76.33 -82.24,-76.33l-92.9 0zm0 -44.38l84.02 0c24.26,0 43.79,-5.91 57.98,-17.75 14.8,-12.42 21.89,-28.99 21.89,-49.7 0,-23.08 -6.5,-39.65 -20.12,-50.3 -13.61,-10.66 -34.31,-15.97 -61.54,-15.97l-82.24 0 0 133.72z"></path> <path id="_1_2" fill="#5D5F61" fill-rule="nonzero" d="M5155.92 5547.81c-4.74,44.97 -21.3,79.29 -49.11,102.95 -27.21,24.26 -64.49,36.69 -110.05,36.69 -49.71,0 -89.35,-17.75 -119.53,-53.85 -30.17,-35.5 -44.97,-82.84 -44.97,-142.6l0 -40.83c0,-39.05 7.1,-73.37 21.3,-102.95 13.62,-29.59 33.73,-52.67 59.18,-68.05 25.43,-15.97 55.02,-24.26 88.75,-24.26 44.97,0 80.48,12.43 107.69,37.87 26.63,24.85 42.6,59.18 46.75,103.55l-55.62 0c-4.74,-33.72 -15.39,-57.98 -31.36,-72.77 -15.97,-15.38 -38.46,-23.08 -67.45,-23.08 -35.5,0 -63.31,13.61 -83.43,39.64 -20.12,26.04 -30.17,63.31 -30.17,111.83l0 40.83c0,45.56 9.46,81.65 28.99,108.87 18.93,26.63 45.56,40.23 79.89,40.23 30.76,0 54.43,-7.1 71,-20.71 16.57,-14.2 27.22,-38.46 32.55,-73.37l55.62 0z"></path> <path id="_2_3" fill="#5D5F61" fill-rule="nonzero" d="M5452.26 5681.54l0 -163.9 -97.03 0 -86.98 163.9 -59.76 0 97.63 -179.29c-53.84,-21.3 -81.06,-59.17 -81.06,-114.78 0,-39.64 13.01,-71.01 39.05,-93.49 26.63,-21.89 63.31,-33.13 110.06,-33.13l133.73 0 0 420.69 -55.63 0zm-171.59 -294.07c0,25.44 7.7,46.15 23.67,61.54 15.98,15.38 37.87,23.08 66.27,23.08l81.65 0 0 -165.67 -79.28 0c-29.59,0 -52.66,7.09 -68.64,21.3 -15.97,14.2 -23.67,34.31 -23.67,59.76z"></path> <path id="_3_4" fill="#5D5F61" fill-rule="nonzero" d="M6133.4 5784.49l-55.03 0 0 -102.95 -301.76 0 0 103.55 -55.63 0 -0.59 -149.11 34.92 0c17.75,-20.12 31.95,-47.34 43.19,-82.24 10.65,-34.31 17.16,-71.6 19.53,-113.02l9.46 -179.87 251.47 0 0 375.13 55.03 0 -0.59 148.51zm-315.37 -148.51l205.31 0 0 -329.57 -142.6 0 -5.92 123.66c-2.37,48.52 -8.88,89.94 -18.93,123.66 -10.66,34.31 -23.08,61.54 -37.87,82.24z"></path> <path id="_4" fill="#5D5F61" fill-rule="nonzero" d="M6516.31 5484.5c0,41.42 -6.5,77.52 -20.71,108.28 -13.61,30.77 -33.13,53.85 -58.58,70.41 -25.44,15.97 -55.02,24.26 -89.35,24.26 -33.13,0 -62.13,-8.29 -88.15,-24.26 -25.44,-16.57 -45.56,-39.64 -59.77,-69.82 -13.61,-30.17 -21.3,-65.09 -21.3,-104.73l0 -30.17c0,-40.84 6.51,-76.33 20.71,-107.69 14.21,-30.77 34.32,-54.44 59.77,-71.01 26.03,-16.57 55.02,-24.85 88.15,-24.85 33.73,0 63.31,8.29 89.35,24.85 25.44,15.97 45.56,39.64 59.17,70.41 14.21,30.76 20.71,66.86 20.71,108.28l0 26.03zm-55.02 -26.62c0,-50.3 -10.06,-88.16 -30.18,-115.38 -20.12,-26.63 -47.92,-39.64 -84.02,-39.64 -34.91,0 -62.72,13.01 -82.84,39.64 -20.12,27.22 -30.17,63.9 -30.76,111.24l0 30.76c0,48.52 10.05,86.39 30.17,114.2 20.71,27.81 48.52,41.42 84.02,41.42 36.1,0 63.9,-13.01 83.43,-39.05 19.53,-26.04 29.59,-63.31 30.18,-112.42l0 -30.76z"></path> <path id="_5" fill="#5D5F61" fill-rule="nonzero" d="M6908.9 5547.81c-4.74,44.97 -21.3,79.29 -49.11,102.95 -27.21,24.26 -64.49,36.69 -110.05,36.69 -49.71,0 -89.35,-17.75 -119.53,-53.85 -30.17,-35.5 -44.97,-82.84 -44.97,-142.6l0 -40.83c0,-39.05 7.1,-73.37 21.3,-102.95 13.62,-29.59 33.73,-52.67 59.18,-68.05 25.43,-15.97 55.02,-24.26 88.75,-24.26 44.97,0 80.48,12.43 107.69,37.87 26.63,24.85 42.6,59.18 46.75,103.55l-55.62 0c-4.74,-33.72 -15.39,-57.98 -31.36,-72.77 -15.97,-15.38 -38.46,-23.08 -67.45,-23.08 -35.5,0 -63.31,13.61 -83.43,39.64 -20.12,26.04 -30.17,63.31 -30.17,111.83l0 40.83c0,45.56 9.46,81.65 28.99,108.87 18.93,26.63 45.56,40.23 79.89,40.23 30.76,0 54.43,-7.1 71,-20.71 16.57,-14.2 27.22,-38.46 32.55,-73.37l55.62 0z"></path> <polygon id="_6" fill="#5D5F61" fill-rule="nonzero" points="7267.27,5306.41 7131.77,5306.41 7131.77,5681.54 7076.75,5681.54 7076.75,5306.41 6941.84,5306.41 6941.84,5260.85 7267.27,5260.85 "></polygon> <path id="_7" fill="#5D5F61" fill-rule="nonzero" d="M7538.96 5571.48l-176.33 0 -39.64 110.06 -56.8 0 160.34 -420.69 48.52 0 160.94 420.69 -56.8 0 -40.23 -110.06zm-159.17 -45.56l142.6 0 -71.59 -196.43 -71.01 196.43z"></path> <path id="_8" fill="#5D5F61" fill-rule="nonzero" d="M7693 5681.54l0 -420.69 137.27 0c45.56,0 79.88,9.46 102.95,28.4 23.08,18.93 34.32,46.74 34.32,84.02 0,19.53 -5.33,36.68 -16.58,52.06 -11.24,14.79 -26.62,26.63 -45.55,34.91 22.48,6.51 40.83,18.35 53.84,36.1 13.01,17.75 19.53,39.05 19.53,63.9 0,37.87 -11.83,67.45 -36.68,88.76 -24.26,21.89 -58.58,32.54 -103.55,32.54l-145.55 0zm55.02 -197.04l0 151.47 91.72 0c26.04,0 46.15,-6.51 60.94,-20.12 15.38,-13.01 22.48,-31.35 22.48,-55.02 0,-50.89 -27.22,-76.33 -82.24,-76.33l-92.9 0zm0 -44.38l84.02 0c24.26,0 43.79,-5.91 57.98,-17.75 14.8,-12.42 21.89,-28.99 21.89,-49.7 0,-23.08 -6.5,-39.65 -20.12,-50.3 -13.61,-10.66 -34.31,-15.97 -61.54,-15.97l-82.24 0 0 133.72z"></path> <polygon id="_9" fill="#5D5F61" fill-rule="nonzero" points="8170.2,5492.79 8119.31,5492.79 8119.31,5681.54 8063.7,5681.54 8063.7,5260.85 8119.31,5260.85 8119.31,5446.64 8162.5,5446.64 8309.24,5260.85 8378.47,5260.85 8218.12,5464.98 8390.3,5681.54 8322.26,5681.54 "></polygon> <path id="_10" fill="#5D5F61" fill-rule="nonzero" d="M8673.43 5571.48l-176.33 0 -39.64 110.06 -56.8 0 160.34 -420.69 48.52 0 160.94 420.69 -56.8 0 -40.23 -110.06zm-159.17 -45.56l142.6 0 -71.59 -196.43 -71.01 196.43z"></path> <path id="_11" fill="#5D5F61" fill-rule="nonzero" d="M8973.91 5681.54l0 -420.69 137.27 0c45.56,0 79.88,9.46 102.95,28.4 23.08,18.93 34.32,46.74 34.32,84.02 0,19.53 -5.33,36.68 -16.58,52.06 -11.24,14.79 -26.62,26.63 -45.55,34.91 22.48,6.51 40.83,18.35 53.84,36.1 13.01,17.75 19.53,39.05 19.53,63.9 0,37.87 -11.83,67.45 -36.68,88.76 -24.26,21.89 -58.58,32.54 -103.55,32.54l-145.55 0zm55.02 -197.04l0 151.47 91.72 0c26.04,0 46.15,-6.51 60.94,-20.12 15.38,-13.01 22.48,-31.35 22.48,-55.02 0,-50.89 -27.22,-76.33 -82.24,-76.33l-92.9 0zm0 -44.38l84.02 0c24.26,0 43.79,-5.91 57.98,-17.75 14.8,-12.42 21.89,-28.99 21.89,-49.7 0,-23.08 -6.5,-39.65 -20.12,-50.3 -13.61,-10.66 -34.31,-15.97 -61.54,-15.97l-82.24 0 0 133.72z"></path> <path id="_12" fill="#5D5F61" fill-rule="nonzero" d="M9811.75 5484.5c0,41.42 -6.5,77.52 -20.71,108.28 -13.61,30.77 -33.13,53.85 -58.58,70.41 -25.44,15.97 -55.02,24.26 -89.35,24.26 -33.13,0 -62.13,-8.29 -88.15,-24.26 -25.44,-16.57 -45.56,-39.64 -59.77,-69.82 -13.61,-30.17 -21.3,-65.09 -21.3,-104.73l0 -30.17c0,-40.84 6.51,-76.33 20.71,-107.69 14.21,-30.77 34.32,-54.44 59.77,-71.01 26.03,-16.57 55.02,-24.85 88.15,-24.85 33.73,0 63.31,8.29 89.35,24.85 25.44,15.97 45.56,39.64 59.17,70.41 14.21,30.76 20.71,66.86 20.71,108.28l0 26.03zm-55.02 -26.62c0,-50.3 -10.06,-88.16 -30.18,-115.38 -20.12,-26.63 -47.92,-39.64 -84.02,-39.64 -34.91,0 -62.72,13.01 -82.84,39.64 -20.12,27.22 -30.17,63.9 -30.76,111.24l0 30.76c0,48.52 10.05,86.39 30.17,114.2 20.71,27.81 48.52,41.42 84.02,41.42 36.1,0 63.9,-13.01 83.43,-39.05 19.53,-26.04 29.59,-63.31 30.18,-112.42l0 -30.76z"></path> <path id="_13" fill="#5D5F61" fill-rule="nonzero" d="M10264 5784.49l-55.03 0 0 -102.95 -301.76 0 0 103.55 -55.63 0 -0.59 -149.11 34.92 0c17.75,-20.12 31.95,-47.34 43.19,-82.24 10.65,-34.31 17.16,-71.6 19.53,-113.02l9.46 -179.87 251.47 0 0 375.13 55.03 0 -0.59 148.51zm-315.37 -148.51l205.31 0 0 -329.57 -142.6 0 -5.92 123.66c-2.37,48.52 -8.88,89.94 -18.93,123.66 -10.66,34.31 -23.08,61.54 -37.87,82.24z"></path> <polygon id="_14" fill="#5D5F61" fill-rule="nonzero" points="10653.92,5681.54 10598.3,5681.54 10598.3,5486.87 10385.89,5486.87 10385.89,5681.54 10330.86,5681.54 10330.86,5260.85 10385.89,5260.85 10385.89,5441.9 10598.3,5441.9 10598.3,5260.85 10653.92,5260.85 "></polygon> <path id="_15" fill="#5D5F61" fill-rule="nonzero" d="M11075.7 5484.5c0,41.42 -6.5,77.52 -20.71,108.28 -13.61,30.77 -33.13,53.85 -58.58,70.41 -25.44,15.97 -55.02,24.26 -89.35,24.26 -33.13,0 -62.13,-8.29 -88.15,-24.26 -25.44,-16.57 -45.56,-39.64 -59.77,-69.82 -13.61,-30.17 -21.3,-65.09 -21.3,-104.73l0 -30.17c0,-40.84 6.51,-76.33 20.71,-107.69 14.21,-30.77 34.32,-54.44 59.77,-71.01 26.03,-16.57 55.02,-24.85 88.15,-24.85 33.73,0 63.31,8.29 89.35,24.85 25.44,15.97 45.56,39.64 59.17,70.41 14.21,30.76 20.71,66.86 20.71,108.28l0 26.03zm-55.02 -26.62c0,-50.3 -10.06,-88.16 -30.18,-115.38 -20.12,-26.63 -47.92,-39.64 -84.02,-39.64 -34.91,0 -62.72,13.01 -82.84,39.64 -20.12,27.22 -30.17,63.9 -30.76,111.24l0 30.76c0,48.52 10.05,86.39 30.17,114.2 20.71,27.81 48.52,41.42 84.02,41.42 36.1,0 63.9,-13.01 83.43,-39.05 19.53,-26.04 29.59,-63.31 30.18,-112.42l0 -30.76z"></path> <polygon id="_16" fill="#5D5F61" fill-rule="nonzero" points="11231.02,5260.85 11368.3,5604.03 11505.56,5260.85 11577.75,5260.85 11577.75,5681.54 11522.14,5681.54 11522.14,5517.64 11527.46,5340.72 11389.6,5681.54 11346.99,5681.54 11209.13,5341.91 11214.45,5517.64 11214.45,5681.54 11159.43,5681.54 11159.43,5260.85 "></polygon> <path id="_17" fill="#5D5F61" fill-rule="nonzero" d="M12054.37 5571.48l-176.33 0 -39.64 110.06 -56.8 0 160.34 -420.69 48.52 0 160.94 420.69 -56.8 0 -40.23 -110.06zm-159.17 -45.56l142.6 0 -71.59 -196.43 -71.01 196.43z"></path> <path id="_18" fill="#5D5F61" fill-rule="nonzero" d="M12263.43 5517.05l0 164.49 -55.02 0 0 -420.69 155.02 0c46.15,0 81.65,11.83 108.28,35.5 26.04,23.08 39.05,54.44 39.05,92.9 0,40.83 -13.01,72.18 -38.46,94.67 -25.44,21.89 -62.13,33.14 -109.46,33.14l-99.4 0zm0 -45.56l99.99 0c29.59,0 52.07,-7.1 68.05,-20.71 15.97,-14.2 23.67,-34.31 23.67,-60.94 0,-24.85 -7.7,-44.97 -23.67,-59.76 -15.97,-15.39 -37.27,-23.08 -65.09,-23.67l-102.95 0 0 165.08z"></path> <polygon id="_19" fill="#5D5F61" fill-rule="nonzero" points="12640.83,5681.54 12585.21,5681.54 12585.21,5260.85 12640.83,5260.85 "></polygon> </g> </svg> 